<svg width="47" height="47" viewBox="0 0 47 47" fill="none" xmlns="http://www.w3.org/2000/svg">
<g id="footer_logo 1" clip-path="url(#clip0_1083_24)">
<g id="Group">
<path id="Vector" d="M46.02 43.0901V3.00007C46.02 2.20442 45.704 1.44136 45.1413 0.878747C44.5787 0.316138 43.8157 6.94368e-05 43.02 6.94368e-05H3.02001C2.41488 -0.0139213 1.81967 0.155453 1.31258 0.485955C0.805488 0.816457 0.410225 1.29262 0.178728 1.85189C-0.0527679 2.41116 -0.109667 3.02739 0.0154898 3.61959C0.140647 4.2118 0.442006 4.75229 0.879992 5.17007L40.88 45.2201C41.299 45.6467 41.836 45.9383 42.422 46.0575C43.008 46.1767 43.6162 46.1181 44.1686 45.8892C44.7211 45.6603 45.1924 45.2715 45.5223 44.7727C45.8522 44.274 46.0255 43.688 46.02 43.0901Z" fill="url(#paint0_linear_1083_24)"/>
<path id="translate" style="transform-origin: center; transform-box: fill-box; animation: translateX 2s linear infinite;" d="M26.67 42.3301V22.5001C26.67 21.7044 26.3539 20.9414 25.7913 20.3788C25.2287 19.8162 24.4657 19.5001 23.67 19.5001H3.86001C3.25701 19.4883 2.66443 19.6585 2.15963 19.9886C1.65483 20.3186 1.26125 20.7931 1.03021 21.3502C0.799157 21.9074 0.741381 22.5212 0.864434 23.1116C0.987486 23.702 1.28563 24.2417 1.71999 24.6601L21.5 44.5001C21.9195 44.9402 22.4628 45.2425 23.058 45.3669C23.6532 45.4913 24.2721 45.4319 24.8327 45.1966C25.3934 44.9612 25.8693 44.5611 26.1974 44.0492C26.5255 43.5373 26.6903 42.9378 26.67 42.3301Z" fill="#3DE1D6"/>
</g>
</g>
<defs>
<linearGradient id="paint0_linear_1083_24" x1="17.2" y1="31.0201" x2="36.16" y2="5.10006" gradientUnits="userSpaceOnUse">
<stop stop-color="#3899EC"/>
<stop offset="1" stop-color="#3DE1D6"/>
</linearGradient>
<clipPath id="clip0_1083_24">
<rect width="47" height="47" fill="white"/>
</clipPath>
</defs>
<style>  
  @keyframes translateX {
    0%,
    100% {
      transform: translateX(0px) translateY(0px);
    }
  
    50% {
      transform: translateX(5px) translateY(-4px);
    }
  }
</style>
</svg>
