<svg width="48"  height="48" viewBox="0 0 48 48" fill="none" xmlns="http://www.w3.org/2000/svg" >
<g id="Group 1">
<path id="rotate" style="transform-origin: center; transform-box: fill-box; animation: spinner 2s linear infinite;" d="M45.284 15.83C46.1459 14.9691 46.8298 13.9468 47.2965 12.8215C47.7632 11.6963 48.0036 10.4901 48.0039 9.27185C48.0043 8.05363 47.7646 6.84728 47.2986 5.72173C46.8326 4.59617 46.1493 3.57347 45.2879 2.71206C44.4265 1.85065 43.4038 1.16742 42.2783 0.701396C41.1527 0.235374 39.9464 -0.00430207 38.7282 -0.00393635C37.5099 -0.00357062 36.3037 0.236829 35.1785 0.703527C34.0532 1.17023 33.0309 1.85407 32.17 2.716C30.004 4.88199 27.0662 6.09883 24.003 6.09883C20.9398 6.09883 18.002 4.88199 15.836 2.716C14.5391 1.41915 12.8869 0.53598 11.0881 0.178179C9.28929 -0.179622 7.42479 0.00401372 5.73037 0.705865C4.03596 1.40772 2.58771 2.59626 1.56878 4.1212C0.54985 5.64613 0.00599766 7.43897 0.00599766 9.273C0.00599766 11.107 0.54985 12.8999 1.56878 14.4248C2.58771 15.9497 4.03596 17.1383 5.73037 17.8401C7.42479 18.542 9.28929 18.7256 11.0881 18.3678C12.8869 18.01 14.5391 17.1269 15.836 15.83C18.0054 13.6801 20.938 12.477 23.9922 12.4839C27.0464 12.4908 29.9735 13.7072 32.1332 15.8668C34.2928 18.0265 35.5092 20.9536 35.5161 24.0078C35.523 27.062 34.3199 29.9946 32.17 32.164C30.8741 33.4612 29.9918 35.1134 29.6346 36.9119C29.2773 38.7104 29.4612 40.5744 30.1628 42.2684C30.8645 43.9624 32.0526 45.4104 33.5769 46.4295C35.1012 47.4486 36.8934 47.993 38.727 47.994C40.561 47.994 42.3539 47.4501 43.8788 46.4312C45.4037 45.4123 46.5923 43.964 47.2941 42.2696C47.996 40.5752 48.1796 38.7107 47.8218 36.9119C47.464 35.1131 46.5809 33.4609 45.284 32.164C43.118 29.998 41.9012 27.0602 41.9012 23.997C41.9012 20.9338 43.118 17.996 45.284 15.83V15.83Z" fill="url(#paint0_linear_1078_6)"/>
<path id="Vector" d="M24 33.273C26.4594 33.273 28.818 32.296 30.557 30.557C32.296 28.818 33.273 26.4594 33.273 24C33.273 21.5406 32.296 19.182 30.557 17.443C28.818 15.704 26.4594 14.727 24 14.727C21.5406 14.727 19.182 15.704 17.443 17.443C15.704 19.182 14.727 21.5406 14.727 24C14.727 26.4594 15.704 28.818 17.443 30.557C19.182 32.296 21.5406 33.273 24 33.273V33.273Z" fill="#3DE1D6"/>
</g>
<defs>
<linearGradient id="paint0_linear_1078_6" x1="16.645" y1="34.055" x2="41.63" y2="-0.0960012" gradientUnits="userSpaceOnUse">
<stop stop-color="#3899EC"/>
<stop offset="1" stop-color="#3DE1D6"/>
</linearGradient>
</defs>
<style>
  @keyframes spinner {
    0% {
      transform: rotate(0deg) scale(.8);
    }
  
    100% {
      transform: rotate(360deg) scale(.8);
    }
  }
</style>
</svg>
