<svg width="18" height="18" viewBox="0 0 18 18" fill="none" xmlns="http://www.w3.org/2000/svg">
<path d="M11.374 5.083L15.085 1.373L14.647 0.939C14.081 0.373 13.092 0.373 12.526 0.939L10.94 2.525C10.656 2.809 10.5 3.186 10.5 3.586C10.5 3.986 10.656 4.363 10.938 4.646L11.374 5.083Z" fill="#A5A5A5"/>
<path d="M4.646 10.939C4.08 10.373 3.091 10.373 2.525 10.939L0.939 12.525C0.656 12.809 0.5 13.186 0.5 13.586C0.5 13.986 0.656 14.363 0.941 14.648L1.378 15.08L5.081 11.377L4.646 10.939Z" fill="#A5A5A5"/>
<path d="M16.437 2.729L16.083 2.375L12.375 6.083L13.025 6.732C13.12 6.827 13.171 6.952 13.171 7.086C13.171 7.22 13.119 7.345 13.025 7.44L7.439 13.026C7.25 13.214 6.921 13.215 6.732 13.026L6.082 12.376L2.38 16.086L2.734 16.44C2.994 16.7 3.98 17.545 5.79 17.545C7.406 17.545 10.046 16.833 13.44 13.44C20.213 6.665 16.598 2.89 16.437 2.729Z" fill="#A5A5A5"/>
</svg>
